<?xml version="1.0" encoding="UTF-8" standalone="no"?>
<svg xmlns:dc="http://purl.org/dc/elements/1.1/" xmlns:cc="http://creativecommons.org/ns#" xmlns:rdf="http://www.w3.org/1999/02/22-rdf-syntax-ns#" xmlns:svg="http://www.w3.org/2000/svg" xmlns="http://www.w3.org/2000/svg" xmlns:sodipodi="http://sodipodi.sourceforge.net/DTD/sodipodi-0.dtd" xmlns:inkscape="http://www.inkscape.org/namespaces/inkscape" viewBox="0 0 10.98 7.04" version="1.1" id="svg3739" sodipodi:docname="dropdown-arrow.svg" inkscape:version="0.92.3 (2405546, 2018-03-11)">
  <metadata id="metadata3743">
    <rdf:RDF>
      <cc:Work rdf:about="">
        <dc:format>image/svg+xml</dc:format>
        <dc:type rdf:resource="http://purl.org/dc/dcmitype/StillImage"/>
        <dc:title>dropdown-arrow</dc:title>
      </cc:Work>
    </rdf:RDF>
  </metadata>
  <sodipodi:namedview pagecolor="#ffffff" bordercolor="#666666" borderopacity="1" objecttolerance="10" gridtolerance="10" guidetolerance="10" inkscape:pageopacity="0" inkscape:pageshadow="2" inkscape:window-width="3840" inkscape:window-height="2004" id="namedview3741" showgrid="false" inkscape:zoom="256" inkscape:cx="4.7868748" inkscape:cy="4.4282031" inkscape:window-x="8984" inkscape:window-y="267" inkscape:window-maximized="1" inkscape:current-layer="svg3739"/>
  <defs id="defs3731">
    <style id="style3729">.cls-1{fill:none;stroke:#231f20;}</style>
  </defs>
  <title id="title3733">dropdown-arrow</title>
  <g id="Layer_2" data-name="Layer 2">
    <g id="Layer_1-2" data-name="Layer 1">
      <polyline class="cls-1" points="0.38 0.33 5.49 6.27 10.6 0.33" id="polyline3735"/>
    </g>
  </g>
  <path style="stroke-width:0.00390625" d="M 2.7475718,3.8458403 C 1.2403603,2.0938219 0.00718727,0.65875916 0.00718727,0.65681189 c 0,-0.001947 0.16898967,-0.14891101 0.3755326,-0.32658608 l 0.3755326,-0.32304557 0.008749,0.00914424 C 0.77181411,0.02135382 1.8360243,1.2581347 3.1319135,2.7647265 4.4278025,4.2713183 5.4892994,5.503866 5.4907955,5.5037219 5.4922916,5.5035773 6.556992,4.2669586 7.8567966,2.7556802 9.1566013,1.2444019 10.22122,0.00833848 10.222615,0.0088726 c 0.0058,0.00222775 0.752694,0.64571129 0.752061,0.6479525 -0.0013,0.004509 -5.4811212,6.3740124 -5.4839403,6.3742593 -0.00153,1.328e-4 -1.2359523,-1.4332258 -2.7431639,-3.1852441 z" id="path3745" inkscape:connector-curvature="0"/>
  <path style="stroke-width:0.00390625;fill:#ffffff" d="M 5.4167681,6.9445586 C 4.935731,6.388814 0.55404126,1.2954626 0.09203634,0.75499873 0.04751779,0.70291994 0.01109352,0.65872939 0.01109352,0.65679752 c 0,-0.0049 0.06306104,-0.0597314 0.65986738,-0.57375504 C 0.7411088,0.0226248 0.7594997,0.00859453 0.7632658,0.01262407 0.7658528,0.01539177 0.91457923,0.18816404 1.0937696,0.39656248 2.26619,1.7600875 5.2435498,5.2199094 5.4325209,5.4383804 c 0.031045,0.035891 0.057937,0.064334 0.059761,0.063206 0.00485,-0.003 0.2519719,-0.289641 1.3938383,-1.616743 2.9930762,-3.47861872 3.3301668,-3.86986743 3.3363008,-3.87232098 0.0031,-0.0012531 0.257879,0.21630119 0.561454,0.4794841 0.09309,0.0807087 0.17383,0.15057679 0.179413,0.15526238 0.0091,0.007609 0.0096,0.009272 0.0046,0.0155657 -0.01087,0.0137175 -0.291072,0.3404633 -0.632553,0.7376338 C 9.8134513,2.0074197 8.4415986,3.6023109 7.8724345,4.26375 7.5951271,4.5860156 7.1618216,5.0896289 6.9095334,5.3828906 6.420049,5.9518715 5.6695537,6.8234316 5.5607103,6.9492969 c -0.036229,0.041894 -0.067242,0.076676 -0.068919,0.077293 -0.00168,6.164e-4 -0.035437,-0.036298 -0.075023,-0.082031 z" id="path3747" inkscape:connector-curvature="0"/>
</svg>